<svg width="48" height="54" viewBox="0 0 48 54" fill="none" xmlns="http://www.w3.org/2000/svg">
<path opacity="0.4" fill-rule="evenodd" clip-rule="evenodd" d="M26.3369 47.5493L26.3269 31.3488L40.2412 39.5252L26.3369 47.5493ZM23.8474 48.9097H23.9754C23.9599 48.9163 23.9397 48.9229 23.91 48.9229C23.8879 48.9229 23.8673 48.9176 23.8474 48.9097ZM5.03501 38.0225C4.98173 37.9914 4.94858 37.9338 4.94858 37.8721L4.96178 18.794L21.3769 28.4399L21.3885 47.4902L5.03501 38.0225ZM23.8536 5.14244C23.8636 5.13666 23.8938 5.11932 23.9402 5.11932C23.9712 5.11932 24.0002 5.12708 24.0269 5.1426L40.2428 14.5307L23.8509 24.1495L7.53324 14.5607L23.8536 5.14244ZM28.7404 27.0225L42.8999 18.7138L42.8884 35.3364L28.7404 27.0225ZM45.2924 11.7313L26.5042 0.853815C25.7113 0.394898 24.8256 0.165192 23.9402 0.165192C23.0571 0.165192 22.1741 0.393412 21.3825 0.850348L2.57922 11.7014C0.993731 12.6162 0.0164113 14.3084 0.0150918 16.1403L8.14464e-05 37.8686C-0.00123814 39.7006 0.973772 41.3941 2.55777 42.3111L21.3461 53.1882C22.1391 53.6476 23.0246 53.877 23.91 53.877C24.7932 53.877 25.6761 53.6488 26.4677 53.192L45.271 42.3408C46.8563 41.426 47.8338 39.734 47.8351 37.9019L47.8503 16.1736C47.8515 14.3418 46.8764 12.6483 45.2924 11.7313Z" fill="#0659FD"/>
<path fill-rule="evenodd" clip-rule="evenodd" d="M23.9099 48.9229C23.888 48.9229 23.8674 48.9177 23.8472 48.9097H23.9752C23.9599 48.9163 23.9396 48.9229 23.9099 48.9229ZM23.9403 5.11937C23.9711 5.11937 24.0003 5.12713 24.0269 5.14265L30.16 8.69327L47.8482 18.8413L47.8502 16.1737C47.8513 14.3416 46.8763 12.6483 45.2923 11.7311L26.5042 0.853861C25.7111 0.394779 24.8255 0.165237 23.9403 0.165237C23.0571 0.165237 22.1742 0.393458 21.3824 0.850393L2.5791 11.7014C1.10183 12.5539 0.153538 14.0814 0.0298262 15.7679L30.027 33.5232L38.9106 38.7434L40.2411 39.5253L32.9356 43.7413V43.7556L28.2563 46.4559L26.3376 47.5886L26.2827 47.5868C25.5394 47.9762 24.7251 48.1732 23.9099 48.1732C23.0245 48.1732 22.139 47.9435 21.3459 47.4844L14.2964 43.4032V43.3822L0.00194989 35.1027L-2.94932e-05 37.8686C-0.00118413 39.7005 0.973826 41.394 2.55783 42.3112L21.3459 53.1883C22.139 53.6475 23.0245 53.8771 23.9099 53.8771C24.793 53.8771 25.6762 53.6487 26.4676 53.1921L45.2709 42.3409C46.7523 41.4861 47.7022 39.9528 47.8217 38.261L42.8325 35.3684L39.2109 33.1929L20.0696 21.9274L7.53317 14.5606L23.8537 5.14249C23.8636 5.1367 23.8937 5.11937 23.9403 5.11937Z" fill="#0659FD"/>
</svg>
